<svg width="44" height="44" viewBox="0 0 44 44" fill="none" xmlns="http://www.w3.org/2000/svg">
<rect x="0.5" y="0.5" width="43" height="43" rx="21.5" fill="#FAFAFA"/>
<rect x="0.5" y="0.5" width="43" height="43" rx="21.5" stroke="#2E2D2D"/>
<path d="M31.8378 30.9063C30.2031 28.0802 27.5829 26.1507 24.547 25.455C25.9896 24.864 27.1822 23.7904 27.921 22.4177C28.6599 21.045 28.8992 19.4583 28.598 17.9287C28.2968 16.3991 27.4738 15.0216 26.2697 14.0315C25.0656 13.0413 23.555 12.5 21.9961 12.5C20.4371 12.5 18.9266 13.0413 17.7224 14.0315C16.5183 15.0216 15.6954 16.3991 15.3942 17.9287C15.093 19.4583 15.3323 21.045 16.0711 22.4177C16.81 23.7904 18.0026 24.864 19.4451 25.455C16.4133 26.1477 13.7891 28.0802 12.1544 30.9063C12.1071 30.9967 12.0965 31.102 12.125 31.2C12.1534 31.298 12.2187 31.3813 12.307 31.4324C12.3954 31.4835 12.5001 31.4984 12.5993 31.4742C12.6984 31.4499 12.7844 31.3882 12.8391 31.3021C14.7726 27.9565 18.1983 25.9587 21.9961 25.9587C25.7938 25.9587 29.2195 27.9565 31.153 31.3021C31.1877 31.3622 31.2376 31.4121 31.2977 31.4468C31.3578 31.4816 31.426 31.4999 31.4954 31.5C31.5649 31.5002 31.6333 31.4817 31.6933 31.4465C31.784 31.394 31.8502 31.3076 31.8773 31.2063C31.9044 31.105 31.8901 30.9971 31.8378 30.9063ZM16.059 19.23C16.059 18.0558 16.4072 16.9079 17.0596 15.9316C17.712 14.9552 18.6392 14.1943 19.7241 13.7449C20.8089 13.2955 22.0027 13.178 23.1543 13.407C24.306 13.6361 25.3639 14.2016 26.1942 15.0319C27.0245 15.8622 27.59 16.9201 27.8191 18.0718C28.0481 19.2234 27.9306 20.4172 27.4812 21.502C27.0318 22.5869 26.2709 23.5141 25.2945 24.1665C24.3182 24.8189 23.1703 25.1671 21.9961 25.1671C20.422 25.1653 18.913 24.5392 17.8 23.4261C16.6869 22.3131 16.0608 20.8041 16.059 19.23Z" fill="#2E2D2D"/>
</svg>
